<mxfile host="app.diagrams.net" modified="2022-04-17T11:07:31.843Z" agent="5.0 (X11; Linux x86_64) AppleWebKit/537.36 (KHTML, like Gecko) Chrome/99.0.4844.82 Safari/537.36" etag="kcsI4grzwOT9g5lkiZXv" version="17.4.5" type="github">
  <diagram name="Page-1" id="e7e014a7-5840-1c2e-5031-d8a46d1fe8dd">
    <mxGraphModel dx="2127" dy="928" grid="0" gridSize="10" guides="1" tooltips="1" connect="1" arrows="1" fold="1" page="1" pageScale="1" pageWidth="1169" pageHeight="826" background="none" math="0" shadow="1">
      <root>
        <mxCell id="0" />
        <mxCell id="1" parent="0" />
        <mxCell id="2" value="买家" style="swimlane;whiteSpace=wrap;startSize=23;fontSize=16;" parent="1" vertex="1">
          <mxGeometry x="89" y="128" width="355.5" height="1415" as="geometry" />
        </mxCell>
        <mxCell id="5" value="" style="ellipse;shape=startState;fillColor=#000000;strokeColor=#ff0000;fontSize=16;" parent="2" vertex="1">
          <mxGeometry x="121.5" y="46" width="30" height="30" as="geometry" />
        </mxCell>
        <mxCell id="6" value="" style="edgeStyle=elbowEdgeStyle;elbow=horizontal;verticalAlign=bottom;endArrow=open;endSize=8;strokeColor=#000000;endFill=1;rounded=0;exitX=0.501;exitY=0.903;exitDx=0;exitDy=0;exitPerimeter=0;fontSize=16;strokeWidth=2;" parent="2" source="5" target="7" edge="1">
          <mxGeometry x="121.5" y="40" as="geometry">
            <mxPoint x="136.5" y="110" as="targetPoint" />
          </mxGeometry>
        </mxCell>
        <mxCell id="7" value="打开交易平台网站" style="fontSize=16;rounded=1;" parent="2" vertex="1">
          <mxGeometry x="61.5" y="110" width="149.5" height="49" as="geometry" />
        </mxCell>
        <mxCell id="8" value="挑选商品" style="fontSize=16;rounded=1;" parent="2" vertex="1">
          <mxGeometry x="81.5" y="217" width="110" height="50" as="geometry" />
        </mxCell>
        <mxCell id="9" value="" style="endArrow=open;strokeColor=#000000;endFill=1;rounded=0;entryX=0.514;entryY=0.02;entryDx=0;entryDy=0;entryPerimeter=0;exitX=0.51;exitY=1.013;exitDx=0;exitDy=0;exitPerimeter=0;fontSize=16;strokeWidth=2;" parent="2" source="7" target="8" edge="1">
          <mxGeometry relative="1" as="geometry">
            <mxPoint x="137" y="168" as="sourcePoint" />
            <mxPoint x="137" y="220" as="targetPoint" />
          </mxGeometry>
        </mxCell>
        <mxCell id="66l9iURnwUuSYkUhyGDJ-48" style="edgeStyle=orthogonalEdgeStyle;rounded=0;orthogonalLoop=1;jettySize=auto;html=1;entryX=1.017;entryY=0.494;entryDx=0;entryDy=0;entryPerimeter=0;strokeColor=#000000;fontSize=16;strokeWidth=2;" parent="2" source="66l9iURnwUuSYkUhyGDJ-45" target="66l9iURnwUuSYkUhyGDJ-47" edge="1">
          <mxGeometry relative="1" as="geometry" />
        </mxCell>
        <mxCell id="66l9iURnwUuSYkUhyGDJ-45" value="登录" style="rhombus;whiteSpace=wrap;html=1;fontSize=16;" parent="2" vertex="1">
          <mxGeometry x="220.5" y="472" width="80" height="80" as="geometry" />
        </mxCell>
        <mxCell id="66l9iURnwUuSYkUhyGDJ-47" value="注册/登录" style="shape=process;whiteSpace=wrap;html=1;backgroundOutline=1;gradientColor=none;fontSize=16;" parent="2" vertex="1">
          <mxGeometry x="30" y="482" width="120" height="60" as="geometry" />
        </mxCell>
        <mxCell id="66l9iURnwUuSYkUhyGDJ-52" value="是" style="text;html=1;align=center;verticalAlign=middle;resizable=0;points=[];autosize=1;strokeColor=none;fillColor=none;fontSize=16;" parent="2" vertex="1">
          <mxGeometry x="227" y="566" width="26" height="23" as="geometry" />
        </mxCell>
        <mxCell id="66l9iURnwUuSYkUhyGDJ-74" value="&lt;font style=&quot;font-size: 16px&quot;&gt;砍价&lt;/font&gt;" style="rhombus;whiteSpace=wrap;html=1;fontSize=16;" parent="2" vertex="1">
          <mxGeometry x="216.5" y="648" width="88.5" height="85" as="geometry" />
        </mxCell>
        <mxCell id="66l9iURnwUuSYkUhyGDJ-75" value="" style="edgeStyle=orthogonalEdgeStyle;rounded=0;orthogonalLoop=1;jettySize=auto;html=1;strokeColor=#000000;fontSize=16;exitX=0.5;exitY=1;exitDx=0;exitDy=0;strokeWidth=2;" parent="2" source="66l9iURnwUuSYkUhyGDJ-45" target="66l9iURnwUuSYkUhyGDJ-74" edge="1">
          <mxGeometry relative="1" as="geometry">
            <mxPoint x="260.75" y="732" as="sourcePoint" />
          </mxGeometry>
        </mxCell>
        <mxCell id="66l9iURnwUuSYkUhyGDJ-97" value="退货/退款" style="shape=process;whiteSpace=wrap;html=1;backgroundOutline=1;gradientColor=none;fontSize=16;" parent="2" vertex="1">
          <mxGeometry x="50" y="1079" width="120" height="60" as="geometry" />
        </mxCell>
        <mxCell id="3xEmatZ_UdDW-TYsHwoE-12" value="&lt;font style=&quot;font-size: 16px&quot;&gt;否&lt;/font&gt;" style="text;html=1;align=center;verticalAlign=middle;resizable=0;points=[];autosize=1;strokeColor=none;fillColor=none;fontSize=11;" parent="2" vertex="1">
          <mxGeometry x="225" y="749" width="26" height="19" as="geometry" />
        </mxCell>
        <mxCell id="66l9iURnwUuSYkUhyGDJ-100" value="否" style="text;html=1;align=center;verticalAlign=middle;resizable=0;points=[];autosize=1;strokeColor=none;fillColor=none;fontSize=16;" parent="2" vertex="1">
          <mxGeometry x="191.5" y="1082" width="26" height="23" as="geometry" />
        </mxCell>
        <mxCell id="3" value="商品" style="swimlane;whiteSpace=wrap;gradientColor=none;swimlaneFillColor=none;fontSize=16;labelBorderColor=none;rounded=0;" parent="1" vertex="1">
          <mxGeometry x="444.5" y="128" width="324.5" height="1416" as="geometry" />
        </mxCell>
        <mxCell id="66l9iURnwUuSYkUhyGDJ-41" value="查看商品详情" style="whiteSpace=wrap;html=1;fontSize=16;rounded=1;" parent="3" vertex="1">
          <mxGeometry x="81.5" y="213" width="120" height="60" as="geometry" />
        </mxCell>
        <mxCell id="10" value="购买商品" style="fontSize=16;rounded=1;" parent="3" vertex="1">
          <mxGeometry x="88.5" y="487" width="110" height="50" as="geometry" />
        </mxCell>
        <mxCell id="66l9iURnwUuSYkUhyGDJ-65" value="支付下单" style="whiteSpace=wrap;html=1;fontSize=16;rounded=1;sketch=0;" parent="3" vertex="1">
          <mxGeometry x="-153.5" y="798" width="120" height="60" as="geometry" />
        </mxCell>
        <mxCell id="66l9iURnwUuSYkUhyGDJ-56" value="否" style="text;html=1;align=center;verticalAlign=middle;resizable=0;points=[];autosize=1;strokeColor=none;fillColor=none;fontSize=16;" parent="3" vertex="1">
          <mxGeometry x="60.5" y="349" width="26" height="23" as="geometry" />
        </mxCell>
        <mxCell id="66l9iURnwUuSYkUhyGDJ-58" value="是" style="text;html=1;align=center;verticalAlign=middle;resizable=0;points=[];autosize=1;strokeColor=none;fillColor=none;fontSize=16;" parent="3" vertex="1">
          <mxGeometry x="113.5" y="426" width="26" height="23" as="geometry" />
        </mxCell>
        <mxCell id="66l9iURnwUuSYkUhyGDJ-101" value="是" style="text;html=1;align=center;verticalAlign=middle;resizable=0;points=[];autosize=1;strokeColor=none;fillColor=none;fontSize=16;" parent="3" vertex="1">
          <mxGeometry x="-122.5" y="1160" width="26" height="23" as="geometry" />
        </mxCell>
        <mxCell id="66l9iURnwUuSYkUhyGDJ-102" value="" style="ellipse;html=1;shape=endState;fillColor=#000000;strokeColor=#ff0000;fontSize=16;" parent="3" vertex="1">
          <mxGeometry x="-108.5" y="1331" width="30" height="30" as="geometry" />
        </mxCell>
        <mxCell id="4" value="卖家" style="swimlane;whiteSpace=wrap;fontSize=16;" parent="1" vertex="1">
          <mxGeometry x="770" y="128" width="289" height="1416" as="geometry" />
        </mxCell>
        <mxCell id="66l9iURnwUuSYkUhyGDJ-59" value="&lt;font style=&quot;font-size: 14px&quot;&gt;沟通成功&lt;/font&gt;" style="rhombus;whiteSpace=wrap;html=1;fontSize=16;" parent="4" vertex="1">
          <mxGeometry x="93.5" y="788" width="80" height="80" as="geometry" />
        </mxCell>
        <mxCell id="66l9iURnwUuSYkUhyGDJ-49" value="与卖家沟通" style="whiteSpace=wrap;html=1;fontSize=16;rounded=1;sketch=0;" parent="4" vertex="1">
          <mxGeometry x="72.75" y="656" width="120" height="60" as="geometry" />
        </mxCell>
        <mxCell id="66l9iURnwUuSYkUhyGDJ-60" value="" style="edgeStyle=orthogonalEdgeStyle;rounded=0;orthogonalLoop=1;jettySize=auto;html=1;strokeColor=#000000;exitX=0.504;exitY=1.03;exitDx=0;exitDy=0;exitPerimeter=0;fontSize=16;strokeWidth=2;" parent="4" source="66l9iURnwUuSYkUhyGDJ-49" target="66l9iURnwUuSYkUhyGDJ-59" edge="1">
          <mxGeometry relative="1" as="geometry" />
        </mxCell>
        <mxCell id="66l9iURnwUuSYkUhyGDJ-83" value="否" style="text;html=1;align=center;verticalAlign=middle;resizable=0;points=[];autosize=1;strokeColor=none;fillColor=none;fontSize=16;" parent="4" vertex="1">
          <mxGeometry x="177" y="803" width="26" height="23" as="geometry" />
        </mxCell>
        <mxCell id="3xEmatZ_UdDW-TYsHwoE-14" value="是" style="text;html=1;align=center;verticalAlign=middle;resizable=0;points=[];autosize=1;strokeColor=none;fillColor=none;fontSize=16;" parent="4" vertex="1">
          <mxGeometry x="63" y="834" width="26" height="23" as="geometry" />
        </mxCell>
        <mxCell id="66l9iURnwUuSYkUhyGDJ-43" style="edgeStyle=orthogonalEdgeStyle;rounded=0;orthogonalLoop=1;jettySize=auto;html=1;exitX=1.018;exitY=0.529;exitDx=0;exitDy=0;exitPerimeter=0;strokeColor=#000000;entryX=-0.01;entryY=0.508;entryDx=0;entryDy=0;entryPerimeter=0;fontSize=16;strokeWidth=2;" parent="1" source="8" target="66l9iURnwUuSYkUhyGDJ-41" edge="1">
          <mxGeometry relative="1" as="geometry">
            <mxPoint x="524" y="371" as="targetPoint" />
          </mxGeometry>
        </mxCell>
        <mxCell id="66l9iURnwUuSYkUhyGDJ-46" value="" style="edgeStyle=orthogonalEdgeStyle;rounded=0;orthogonalLoop=1;jettySize=auto;html=1;strokeColor=#000000;exitX=0.003;exitY=0.493;exitDx=0;exitDy=0;exitPerimeter=0;fontSize=16;strokeWidth=2;" parent="1" source="10" target="66l9iURnwUuSYkUhyGDJ-45" edge="1">
          <mxGeometry relative="1" as="geometry" />
        </mxCell>
        <mxCell id="66l9iURnwUuSYkUhyGDJ-51" value="否" style="text;html=1;align=center;verticalAlign=middle;resizable=0;points=[];autosize=1;strokeColor=none;fillColor=none;fontSize=16;" parent="1" vertex="1">
          <mxGeometry x="274.5" y="612" width="26" height="23" as="geometry" />
        </mxCell>
        <mxCell id="66l9iURnwUuSYkUhyGDJ-55" style="edgeStyle=orthogonalEdgeStyle;rounded=0;orthogonalLoop=1;jettySize=auto;html=1;entryX=0.495;entryY=1;entryDx=0;entryDy=0;entryPerimeter=0;strokeColor=#000000;fontSize=16;strokeWidth=2;" parent="1" source="66l9iURnwUuSYkUhyGDJ-53" target="8" edge="1">
          <mxGeometry relative="1" as="geometry" />
        </mxCell>
        <mxCell id="66l9iURnwUuSYkUhyGDJ-57" style="edgeStyle=orthogonalEdgeStyle;rounded=0;orthogonalLoop=1;jettySize=auto;html=1;entryX=0.482;entryY=0.02;entryDx=0;entryDy=0;entryPerimeter=0;strokeColor=#000000;fontSize=16;strokeWidth=2;" parent="1" source="66l9iURnwUuSYkUhyGDJ-53" target="10" edge="1">
          <mxGeometry relative="1" as="geometry" />
        </mxCell>
        <mxCell id="66l9iURnwUuSYkUhyGDJ-53" value="心仪" style="rhombus;whiteSpace=wrap;html=1;fontSize=16;" parent="1" vertex="1">
          <mxGeometry x="546" y="460" width="80" height="80" as="geometry" />
        </mxCell>
        <mxCell id="66l9iURnwUuSYkUhyGDJ-54" value="" style="edgeStyle=orthogonalEdgeStyle;rounded=0;orthogonalLoop=1;jettySize=auto;html=1;strokeColor=#000000;exitX=0.497;exitY=1.016;exitDx=0;exitDy=0;exitPerimeter=0;fontSize=16;strokeWidth=2;" parent="1" source="66l9iURnwUuSYkUhyGDJ-41" target="66l9iURnwUuSYkUhyGDJ-53" edge="1">
          <mxGeometry relative="1" as="geometry">
            <mxPoint x="586" y="407" as="sourcePoint" />
          </mxGeometry>
        </mxCell>
        <mxCell id="66l9iURnwUuSYkUhyGDJ-76" style="edgeStyle=orthogonalEdgeStyle;rounded=0;orthogonalLoop=1;jettySize=auto;html=1;entryX=0.003;entryY=0.559;entryDx=0;entryDy=0;entryPerimeter=0;strokeColor=#000000;fontSize=16;strokeWidth=2;" parent="1" source="66l9iURnwUuSYkUhyGDJ-74" target="66l9iURnwUuSYkUhyGDJ-49" edge="1">
          <mxGeometry relative="1" as="geometry" />
        </mxCell>
        <mxCell id="66l9iURnwUuSYkUhyGDJ-77" value="是" style="text;html=1;align=center;verticalAlign=middle;resizable=0;points=[];autosize=1;strokeColor=none;fillColor=none;fontSize=16;" parent="1" vertex="1">
          <mxGeometry x="402" y="795" width="26" height="23" as="geometry" />
        </mxCell>
        <mxCell id="66l9iURnwUuSYkUhyGDJ-82" style="edgeStyle=orthogonalEdgeStyle;rounded=0;orthogonalLoop=1;jettySize=auto;html=1;entryX=0.802;entryY=0.007;entryDx=0;entryDy=0;entryPerimeter=0;strokeColor=#000000;exitX=1;exitY=0.5;exitDx=0;exitDy=0;fontSize=16;strokeWidth=2;" parent="1" source="66l9iURnwUuSYkUhyGDJ-59" target="8" edge="1">
          <mxGeometry relative="1" as="geometry">
            <Array as="points">
              <mxPoint x="986" y="956" />
              <mxPoint x="986" y="306" />
              <mxPoint x="259" y="306" />
            </Array>
          </mxGeometry>
        </mxCell>
        <mxCell id="66l9iURnwUuSYkUhyGDJ-94" value="" style="edgeStyle=orthogonalEdgeStyle;rounded=0;orthogonalLoop=1;jettySize=auto;html=1;strokeColor=#000000;fontSize=16;strokeWidth=2;" parent="1" source="66l9iURnwUuSYkUhyGDJ-88" target="66l9iURnwUuSYkUhyGDJ-93" edge="1">
          <mxGeometry relative="1" as="geometry" />
        </mxCell>
        <mxCell id="66l9iURnwUuSYkUhyGDJ-88" value="根据交易时间&lt;br&gt;地点线下提货" style="whiteSpace=wrap;html=1;fontSize=16;rounded=1;sketch=0;" parent="1" vertex="1">
          <mxGeometry x="291" y="1067" width="120" height="60" as="geometry" />
        </mxCell>
        <mxCell id="66l9iURnwUuSYkUhyGDJ-89" value="" style="edgeStyle=orthogonalEdgeStyle;rounded=0;orthogonalLoop=1;jettySize=auto;html=1;strokeColor=#000000;exitX=0.497;exitY=0.99;exitDx=0;exitDy=0;exitPerimeter=0;entryX=0.495;entryY=0.003;entryDx=0;entryDy=0;entryPerimeter=0;fontSize=16;strokeWidth=2;" parent="1" source="66l9iURnwUuSYkUhyGDJ-65" target="66l9iURnwUuSYkUhyGDJ-88" edge="1">
          <mxGeometry relative="1" as="geometry" />
        </mxCell>
        <mxCell id="66l9iURnwUuSYkUhyGDJ-96" value="" style="edgeStyle=orthogonalEdgeStyle;rounded=0;orthogonalLoop=1;jettySize=auto;html=1;strokeColor=#000000;fontSize=16;strokeWidth=2;" parent="1" source="66l9iURnwUuSYkUhyGDJ-93" target="66l9iURnwUuSYkUhyGDJ-95" edge="1">
          <mxGeometry relative="1" as="geometry" />
        </mxCell>
        <mxCell id="66l9iURnwUuSYkUhyGDJ-98" style="edgeStyle=orthogonalEdgeStyle;rounded=0;orthogonalLoop=1;jettySize=auto;html=1;entryX=0.997;entryY=0.511;entryDx=0;entryDy=0;entryPerimeter=0;strokeColor=#000000;fontSize=16;strokeWidth=2;" parent="1" source="66l9iURnwUuSYkUhyGDJ-93" target="66l9iURnwUuSYkUhyGDJ-97" edge="1">
          <mxGeometry relative="1" as="geometry" />
        </mxCell>
        <mxCell id="66l9iURnwUuSYkUhyGDJ-93" value="&lt;font style=&quot;font-size: 11px&quot;&gt;对实物满意&lt;/font&gt;" style="rhombus;whiteSpace=wrap;html=1;fontSize=16;" parent="1" vertex="1">
          <mxGeometry x="311" y="1197" width="80" height="80" as="geometry" />
        </mxCell>
        <mxCell id="66l9iURnwUuSYkUhyGDJ-103" style="edgeStyle=orthogonalEdgeStyle;rounded=0;orthogonalLoop=1;jettySize=auto;html=1;entryX=0.5;entryY=0;entryDx=0;entryDy=0;strokeColor=#000000;fontSize=16;strokeWidth=2;" parent="1" source="66l9iURnwUuSYkUhyGDJ-95" target="66l9iURnwUuSYkUhyGDJ-102" edge="1">
          <mxGeometry relative="1" as="geometry" />
        </mxCell>
        <mxCell id="66l9iURnwUuSYkUhyGDJ-95" value="交易成功" style="whiteSpace=wrap;html=1;fontSize=16;rounded=1;sketch=0;" parent="1" vertex="1">
          <mxGeometry x="291" y="1336" width="120" height="60" as="geometry" />
        </mxCell>
        <mxCell id="3xEmatZ_UdDW-TYsHwoE-10" style="edgeStyle=orthogonalEdgeStyle;rounded=0;orthogonalLoop=1;jettySize=auto;html=1;entryX=0.488;entryY=-0.044;entryDx=0;entryDy=0;entryPerimeter=0;fontSize=11;strokeColor=#000000;strokeWidth=2;" parent="1" source="66l9iURnwUuSYkUhyGDJ-74" target="66l9iURnwUuSYkUhyGDJ-65" edge="1">
          <mxGeometry relative="1" as="geometry" />
        </mxCell>
        <mxCell id="3xEmatZ_UdDW-TYsHwoE-11" style="edgeStyle=orthogonalEdgeStyle;rounded=0;orthogonalLoop=1;jettySize=auto;html=1;entryX=0;entryY=0.5;entryDx=0;entryDy=0;fontSize=11;strokeColor=#000000;exitX=0.477;exitY=1.013;exitDx=0;exitDy=0;exitPerimeter=0;strokeWidth=2;" parent="1" source="66l9iURnwUuSYkUhyGDJ-97" target="66l9iURnwUuSYkUhyGDJ-102" edge="1">
          <mxGeometry relative="1" as="geometry">
            <mxPoint x="199" y="1278" as="sourcePoint" />
            <Array as="points">
              <mxPoint x="196" y="1474" />
            </Array>
          </mxGeometry>
        </mxCell>
        <mxCell id="3xEmatZ_UdDW-TYsHwoE-13" style="edgeStyle=orthogonalEdgeStyle;rounded=0;orthogonalLoop=1;jettySize=auto;html=1;entryX=1.022;entryY=0.506;entryDx=0;entryDy=0;entryPerimeter=0;fontSize=16;strokeColor=#000000;strokeWidth=2;" parent="1" source="66l9iURnwUuSYkUhyGDJ-59" target="66l9iURnwUuSYkUhyGDJ-65" edge="1">
          <mxGeometry relative="1" as="geometry" />
        </mxCell>
      </root>
    </mxGraphModel>
  </diagram>
</mxfile>
